HIERARCHY
ROOT hip
{
  OFFSET 0 0 0
  CHANNELS 6 Xposition Yposition Zposition Zrotation Yrotation Xrotation
  JOINT abdomen
  {
    OFFSET 0 20.6881 -0.73152
    CHANNELS 3 Zrotation Xrotation Yrotation
    JOINT chest
    {
      OFFSET 0 11.7043 -0.48768
      CHANNELS 3 Zrotation Xrotation Yrotation
      JOINT neck
      {
        OFFSET 0 22.1894 -2.19456
        CHANNELS 3 Zrotation Xrotation Yrotation
        JOINT head
        {
          OFFSET -0.24384 7.07133 1.2192
          CHANNELS 3 Zrotation Xrotation Yrotation
          JOINT leftEye
          {
            OFFSET 4.14528 8.04674 8.04672
            CHANNELS 3 Zrotation Xrotation Yrotation
            End Site
            {
              OFFSET 1 0 0
            }
          }
          JOINT rightEye
          {
            OFFSET -3.6576 8.04674 8.04672
            CHANNELS 3 Zrotation Xrotation Yrotation
            End Site
            {
              OFFSET 1 0 0
            }
          }
        }
      }
      JOINT rCollar
      {
        OFFSET -2.68224 19.2634 -4.8768
        CHANNELS 3 Zrotation Xrotation Yrotation
        JOINT rShldr
        {
          OFFSET -8.77824 -1.95073 1.46304
          CHANNELS 3 Zrotation Xrotation Yrotation
          JOINT rForeArm
          {
            OFFSET -28.1742 -1.7115 0.48768
            CHANNELS 3 Zrotation Xrotation Yrotation
            JOINT rHand
            {
              OFFSET -22.5879 0.773209 7.07136
              CHANNELS 3 Zrotation Xrotation Yrotation
              JOINT rThumb1
              {
                OFFSET -1.2192 -0.487915 3.41376
                CHANNELS 3 Zrotation Xrotation Yrotation
                JOINT rThumb2
                {
                  OFFSET -3.37035 -0.52449 3.41376
                  CHANNELS 3 Zrotation Xrotation Yrotation
                  End Site
                  {
                    OFFSET -1.78271 -1.18214 1.43049
                  }
                }
              }
              JOINT rIndex1
              {
                OFFSET -7.75947 0.938293 5.60832
                CHANNELS 3 Zrotation Xrotation Yrotation
                JOINT rIndex2
                {
                  OFFSET -2.54057 -0.884171 1.56538
                  CHANNELS 3 Zrotation Xrotation Yrotation
                  End Site
                  {
                    OFFSET -1.62519 -0.234802 1.16502
                  }
                }
              }
              JOINT rMid1
              {
                OFFSET -8.24714 1.18213 3.41376
                CHANNELS 3 Zrotation Xrotation Yrotation
                JOINT rMid2
                {
                  OFFSET -3.10165 -0.590103 1.0647
                  CHANNELS 3 Zrotation Xrotation Yrotation
                  End Site
                  {
                    OFFSET -2.48547 -0.328903 0.83742
                  }
                }
              }
              JOINT rRing1
              {
                OFFSET -8.82822 0.546677 1.51678
                CHANNELS 3 Zrotation Xrotation Yrotation
                JOINT rRing2
                {
                  OFFSET -2.60934 -0.819778 -0.0198488
                  CHANNELS 3 Zrotation Xrotation Yrotation
                  End Site
                  {
                    OFFSET -2.33842 -0.294052 0.168128
                  }
                }
              }
              JOINT rPinky1
              {
                OFFSET -8.27202 -0.0477905 -0.4584
                CHANNELS 3 Zrotation Xrotation Yrotation
                JOINT rPinky2
                {
                  OFFSET -1.82734 -0.647385 -0.700984
                  CHANNELS 3 Zrotation Xrotation Yrotation
                  End Site
                  {
                    OFFSET -1.69225 -0.51767 -0.607171
                  }
                }
              }
            }
          }
        }
      }
      JOINT lCollar
      {
        OFFSET 2.68224 19.2634 -4.8768
        CHANNELS 3 Zrotation Xrotation Yrotation
        JOINT lShldr
        {
          OFFSET 8.77824 -1.95073 1.46304
          CHANNELS 3 Zrotation Xrotation Yrotation
          JOINT lForeArm
          {
            OFFSET 28.1742 -1.7115 0.48768
            CHANNELS 3 Zrotation Xrotation Yrotation
            JOINT lHand
            {
              OFFSET 22.5879 0.773209 7.07136
              CHANNELS 3 Zrotation Xrotation Yrotation
              JOINT lThumb1
              {
                OFFSET 1.2192 -0.487915 3.41376
                CHANNELS 3 Zrotation Xrotation Yrotation
                JOINT lThumb2
                {
                  OFFSET 3.37035 -0.52449 3.41376
                  CHANNELS 3 Zrotation Xrotation Yrotation
                  End Site
                  {
                    OFFSET 1.78271 -1.18214 1.43049
                  }
                }
              }
              JOINT lIndex1
              {
                OFFSET 7.75947 0.938293 5.60832
                CHANNELS 3 Zrotation Xrotation Yrotation
                JOINT lIndex2
                {
                  OFFSET 2.54057 -0.884171 1.56538
                  CHANNELS 3 Zrotation Xrotation Yrotation
                  End Site
                  {
                    OFFSET 1.62519 -0.234802 1.16502
                  }
                }
              }
              JOINT lMid1
              {
                OFFSET 8.24714 1.18213 3.41376
                CHANNELS 3 Zrotation Xrotation Yrotation
                JOINT lMid2
                {
                  OFFSET 3.10165 -0.590103 1.0647
                  CHANNELS 3 Zrotation Xrotation Yrotation
                  End Site
                  {
                    OFFSET 2.48547 -0.328903 0.83742
                  }
                }
              }
              JOINT lRing1
              {
                OFFSET 8.82822 0.546677 1.51678
                CHANNELS 3 Zrotation Xrotation Yrotation
                JOINT lRing2
                {
                  OFFSET 2.60934 -0.819778 -0.0198488
                  CHANNELS 3 Zrotation Xrotation Yrotation
                  End Site
                  {
                    OFFSET 2.33842 -0.294052 0.168128
                  }
                }
              }
              JOINT lPinky1
              {
                OFFSET 8.27202 -0.0477905 -0.4584
                CHANNELS 3 Zrotation Xrotation Yrotation
                JOINT lPinky2
                {
                  OFFSET 1.82734 -0.647385 -0.700984
                  CHANNELS 3 Zrotation Xrotation Yrotation
                  End Site
                  {
                    OFFSET 1.69225 -0.51767 -0.607171
                  }
                }
              }
            }
          }
        }
      }
    }
  }
  JOINT rButtock
  {
    OFFSET -8.77824 4.35084 1.2192
    CHANNELS 3 Zrotation Xrotation Yrotation
    JOINT rThigh
    {
      OFFSET 0 -1.70687 -2.19456
      CHANNELS 3 Zrotation Xrotation Yrotation
      JOINT rShin
      {
        OFFSET 0 -36.8199 0.73152
        CHANNELS 3 Zrotation Xrotation Yrotation
        JOINT rFoot
        {
          OFFSET 0.73152 -45.1104 -5.12064
          CHANNELS 3 Zrotation Xrotation Yrotation
          End Site
          {
            OFFSET -1.1221 -3.69964 12.103
          }
        }
      }
    }
  }
  JOINT lButtock
  {
    OFFSET 8.77824 4.35084 1.2192
    CHANNELS 3 Zrotation Xrotation Yrotation
    JOINT lThigh
    {
      OFFSET 0 -1.70687 -2.19456
      CHANNELS 3 Zrotation Xrotation Yrotation
      JOINT lShin
      {
        OFFSET 0 -36.8199 0.73152
        CHANNELS 3 Zrotation Xrotation Yrotation
        JOINT lFoot
        {
          OFFSET -0.73152 -45.1104 -5.12064
          CHANNELS 3 Zrotation Xrotation Yrotation
          End Site
          {
            OFFSET 1.1221 -3.69964 12.103
          }
        }
      }
    }
  }
}
MOTION
Frames:	9
Frame Time:	0.00833333
76.95 39.8288 87.4765 -185.299 -18.521 -171.126 -17.4254 38.6799 -0.140476 0.668897 -2.48495 -4.08665 -10.0354 19.2176 -15.8114 25.4943 -41.3213 -24.5305 -0.0 0.0 0.0 -0.0 0.0 0.0 -1.12506e-13 5.28644e-14 8.10979e-14 48.1767 -29.3023 5.39333 -22.9106 -50.6864 106.567 -0.0790633 -8.00439 -1.13237 8.27168e-10 2.36585e-09 3.04295e-10 1.43112e-09 4.10345e-09 5.30702e-10 8.2717e-10 2.36585e-09 3.04282e-10 7.73091 5.47488 0.417314 8.27166e-10 2.36585e-09 3.04293e-10 2.90554 0.965183 0.102902 8.27178e-10 2.36585e-09 3.04295e-10 10.2786 0.731801 0.0259123 8.27167e-10 2.36585e-09 3.04296e-10 2.22167 -0.733487 -0.20892 -1.12532e-13 5.28896e-14 8.08805e-14 -1.14457 53.7722 -28.6694 27.5799 -42.2209 -88.0059 0.12795 10.1458 -1.44115 -6.95855e-11 2.90712e-10 5.35804e-11 -1.1967e-10 5.04222e-10 9.30859e-11 -6.95928e-11 2.90722e-10 5.35959e-11 -7.73091 5.47488 -0.417314 -6.95841e-11 2.90712e-10 5.35826e-11 -2.90554 0.965183 -0.102902 -6.95871e-11 2.90712e-10 5.35834e-11 -10.2786 0.731801 -0.0259123 -6.95815e-11 2.90713e-10 5.35758e-11 -2.22167 -0.733487 0.20892 -2.03217e-16 0.0 -3.88251e-19 -18.1579 -15.1467 -6.27277 -176.66 70.3058 179.699 -2.38342 13.7859 12.7398 2.03217e-16 0.0 3.88251e-19 130.601 -66.5578 132.137 175.553 65.3158 -173.036 -9.96908 -8.36513 -21.1242
76.8977 39.6447 87.4878 -185.58 -18.4871 -171.241 -17.3687 38.3529 -0.179008 0.84978 -2.53977 -4.03361 -10.117 19.2231 -15.7486 25.413 -40.8636 -24.4241 -0.0 0.0 0.0 -0.0 0.0 0.0 -8.93738e-14 6.29114e-14 4.73527e-14 47.7176 -28.8232 5.09515 -22.9268 -50.6687 106.52 -0.0726308 -7.67061 -1.08457 1.14957e-09 4.36344e-09 8.1416e-10 1.98453e-09 7.56358e-09 1.41549e-09 1.14957e-09 4.36345e-09 8.14148e-10 7.73091 5.47488 0.417314 1.14957e-09 4.36344e-09 8.1416e-10 2.90554 0.965183 0.102902 1.14958e-09 4.36344e-09 8.14163e-10 10.2786 0.731801 0.0259123 1.14957e-09 4.36344e-09 8.14167e-10 2.22167 -0.733487 -0.20892 -8.93396e-14 6.29203e-14 4.70848e-14 -1.34049 54.1345 -28.6989 27.6016 -42.142 -87.8565 0.128039 10.1493 -1.44165 -5.96323e-10 9.36653e-10 -1.03881e-10 -1.03007e-09 1.63073e-09 -1.74352e-10 -5.96328e-10 9.36662e-10 -1.03865e-10 -7.73091 5.47488 -0.417314 -5.9632e-10 9.36654e-10 -1.03882e-10 -2.90554 0.965183 -0.102902 -5.96323e-10 9.36654e-10 -1.0388e-10 -10.2786 0.731801 -0.0259123 -5.96318e-10 9.36654e-10 -1.03887e-10 -2.22167 -0.733487 0.20892 -2.03217e-16 0.0 -3.88251e-19 -18.0704 -15.1681 -6.27155 -176.653 70.3428 179.684 -2.40672 13.7708 12.8619 2.03217e-16 0.0 3.88251e-19 130.694 -66.5364 132.224 175.559 65.2674 -173.044 -9.94502 -8.50493 -20.9797
76.8225 39.7706 87.4216 -185.971 -18.467 -171.399 -17.2959 38.079 -0.163717 0.984604 -2.51441 -3.98063 -10.068 19.2579 -15.6698 25.3526 -40.7147 -24.2745 -0.0 0.0 0.0 -0.0 0.0 0.0 -4.2973e-14 6.36115e-14 -2.37051e-14 47.35 -28.5041 4.86804 -22.9466 -50.6471 106.463 -0.0667216 -7.35016 -1.03876 1.12777e-09 5.71444e-09 1.27489e-09 1.94207e-09 9.90196e-09 2.21378e-09 1.12777e-09 5.71445e-09 1.27488e-09 7.73091 5.47488 0.417314 1.12776e-09 5.71444e-09 1.27489e-09 2.90554 0.965183 0.102902 1.12778e-09 5.71444e-09 1.27489e-09 10.2786 0.731801 0.0259123 1.12777e-09 5.71444e-09 1.2749e-09 2.22167 -0.733487 -0.20892 -4.29048e-14 6.36119e-14 -2.40032e-14 -1.37541 54.3312 -28.89 27.63 -42.0396 -87.6612 0.128763 10.178 -1.44582 -1.28207e-09 2.3653e-09 2.14751e-10 -2.21182e-09 4.10759e-09 3.82386e-10 -1.28208e-09 2.36531e-09 2.14767e-10 -7.73091 5.47488 -0.417314 -1.28207e-09 2.36531e-09 2.14748e-10 -2.90554 0.965183 -0.102902 -1.28207e-09 2.36531e-09 2.14752e-10 -10.2786 0.731801 -0.0259123 -1.28207e-09 2.36531e-09 2.14745e-10 -2.22167 -0.733487 0.20892 -2.03217e-16 0.0 -3.88251e-19 -17.9586 -15.1374 -6.2545 -176.643 70.4146 179.668 -2.42465 13.797 12.9137 2.03217e-16 0.0 3.88251e-19 130.756 -66.4939 132.232 175.565 65.2075 -173.043 -9.97571 -8.44248 -21.0783
76.7931 39.8967 87.3592 -186.046 -18.5383 -171.543 -17.1874 37.8787 -0.0777266 1.05014 -2.3364 -3.93123 -9.81274 19.3475 -15.5757 25.3257 -41.093 -24.072 -0.0 0.0 0.0 -0.0 0.0 0.0 4.79839e-14 4.80048e-14 -1.64299e-13 47.1165 -28.425 4.76307 -22.9693 -50.6222 106.397 -0.0608618 -7.02676 -0.99257 4.75841e-10 6.0782e-09 1.71113e-09 8.08117e-10 1.05271e-08 2.96723e-09 4.75844e-10 6.07821e-09 1.71112e-09 7.73091 5.47488 0.417314 4.7584e-10 6.0782e-09 1.71113e-09 2.90554 0.965183 0.102902 4.75855e-10 6.0782e-09 1.71113e-09 10.2786 0.731801 0.0259123 4.75841e-10 6.0782e-09 1.71114e-09 2.22167 -0.733487 -0.20892 4.8047e-14 4.80092e-14 -1.64598e-13 -1.16406 54.237 -29.3318 27.6697 -41.8935 -87.3825 0.130781 10.2574 -1.45733 -2.35252e-09 5.43999e-09 1.46374e-09 -4.05158e-09 9.42603e-09 2.55041e-09 -2.35252e-09 5.44e-09 1.46375e-09 -7.73091 5.47488 -0.417314 -2.35251e-09 5.44e-09 1.46374e-09 -2.90554 0.965183 -0.102902 -2.35252e-09 5.44e-09 1.46374e-09 -10.2786 0.731801 -0.0259123 -2.35251e-09 5.44e-09 1.46373e-09 -2.22167 -0.733487 0.20892 -2.03217e-16 0.0 -3.88251e-19 -17.798 -15.031 -6.21815 -176.627 70.5495 179.649 -2.4337 13.8883 12.851 2.03217e-16 0.0 3.88251e-19 130.794 -66.4087 132.134 175.569 65.1269 -173.028 -10.0949 -8.05668 -21.576
76.7627 40.0862 87.2656 -186.067 -18.5477 -171.646 -17.0531 37.7087 0.070396 1.08497 -2.04041 -3.87819 -9.41769 19.4858 -15.472 25.3167 -41.8305 -23.8359 -0.0 0.0 0.0 -0.0 0.0 0.0 1.66856e-13 2.10634e-14 -3.4814e-13 46.9526 -28.5191 4.73109 -22.9976 -50.5909 106.315 -0.0550382 -6.6907 -0.944638 -6.25195e-10 5.68726e-09 2.11242e-09 -1.10351e-09 9.8426e-09 3.65835e-09 -6.25191e-10 5.68726e-09 2.11241e-09 7.73091 5.47488 0.417314 -6.25194e-10 5.68726e-09 2.11242e-09 2.90554 0.965183 0.102902 -6.25181e-10 5.68726e-09 2.11242e-09 10.2786 0.731801 0.0259123 -6.25194e-10 5.68726e-09 2.11242e-09 2.22167 -0.733487 -0.20892 1.6689e-13 2.10796e-14 -3.48426e-13 -0.783951 53.9446 -29.9669 27.7154 -41.7173 -87.0508 0.133717 10.3707 -1.47379 -3.65967e-09 9.58643e-09 3.33852e-09 -6.29593e-09 1.65943e-08 5.80207e-09 -3.65967e-09 9.58643e-09 3.33853e-09 -7.73091 5.47488 -0.417314 -3.65966e-09 9.58643e-09 3.33852e-09 -2.90554 0.965183 -0.102902 -3.65967e-09 9.58643e-09 3.33852e-09 -10.2786 0.731801 -0.0259123 -3.65966e-09 9.58643e-09 3.33852e-09 -2.22167 -0.733487 0.20892 -2.03217e-16 0.0 -3.88251e-19 -17.5933 -14.8806 -6.16796 -176.606 70.727 179.628 -2.43565 14.0212 12.7111 2.03217e-16 0.0 3.88251e-19 130.834 -66.2846 131.977 175.574 65.027 -173.004 -10.2638 -7.4539 -22.3496
76.8213 39.9898 87.2681 -185.879 -18.5285 -171.701 -16.927 37.5551 0.247352 1.11149 -1.76347 -3.81911 -9.00394 19.62 -15.3529 25.3236 -42.5638 -23.5644 -0.0 0.0 0.0 -0.0 0.0 0.0 2.78226e-13 -5.28223e-15 -5.22443e-13 46.8007 -28.6587 4.68859 -23.0308 -50.5541 106.219 -0.0501176 -6.3859 -0.901233 -1.66779e-09 5.13369e-09 2.43114e-09 -2.91305e-09 8.87674e-09 4.20653e-09 -1.66779e-09 5.13369e-09 2.43113e-09 7.73091 5.47488 0.417314 -1.66779e-09 5.13369e-09 2.43114e-09 2.90554 0.965183 0.102902 -1.66778e-09 5.13368e-09 2.43114e-09 10.2786 0.731801 0.0259123 -1.66779e-09 5.13369e-09 2.43114e-09 2.22167 -0.733487 -0.20892 2.78225e-13 -5.25306e-15 -5.22709e-13 -0.379258 53.6619 -30.6259 27.7574 -41.5445 -86.7318 0.136431 10.4732 -1.4887 -4.80672e-09 1.32928e-08 5.04543e-09 -8.26489e-09 2.30009e-08 8.76209e-09 -4.80672e-09 1.32928e-08 5.04544e-09 -7.73091 5.47488 -0.417314 -4.80672e-09 1.32928e-08 5.04543e-09 -2.90554 0.965183 -0.102902 -4.80673e-09 1.32928e-08 5.04543e-09 -10.2786 0.731801 -0.0259123 -4.80672e-09 1.32928e-08 5.04543e-09 -2.22167 -0.733487 0.20892 -2.03217e-16 0.0 -3.88251e-19 -17.3962 -14.7158 -6.10779 -176.586 70.8992 179.608 -2.43633 14.1595 12.5652 2.03217e-16 0.0 3.88251e-19 130.841 -66.167 131.784 175.579 64.9268 -172.98 -10.4169 -6.83255 -23.141
76.8273 40.1087 87.1822 -185.736 -18.5331 -171.758 -16.8435 37.4041 0.420064 1.15262 -1.64265 -3.75142 -8.6922 19.697 -15.2123 25.3359 -42.9267 -23.2546 -0.0 0.0 0.0 -0.0 0.0 0.0 3.4668e-13 -1.91016e-14 -6.34421e-13 46.6036 -28.716 4.55196 -23.068 -50.5129 106.111 -0.0467093 -6.15626 -0.868584 -2.14441e-09 5.00955e-09 2.6197e-09 -3.74075e-09 8.65765e-09 4.53117e-09 -2.14441e-09 5.00954e-09 2.61969e-09 7.73091 5.47488 0.417314 -2.14441e-09 5.00955e-09 2.6197e-09 2.90554 0.965183 0.102902 -2.1444e-09 5.00955e-09 2.61969e-09 10.2786 0.731801 0.0259123 -2.14441e-09 5.00955e-09 2.6197e-09 2.22167 -0.733487 -0.20892 3.46653e-13 -1.90651e-14 -6.3467e-13 -0.0765449 53.5986 -31.1543 27.7882 -41.4103 -86.4882 0.137694 10.5202 -1.49553 -5.39689e-09 1.50474e-08 5.79079e-09 -9.27851e-09 2.60344e-08 1.00552e-08 -5.39689e-09 1.50475e-08 5.7908e-09 -7.73091 5.47488 -0.417314 -5.39689e-09 1.50475e-08 5.7908e-09 -2.90554 0.965183 -0.102902 -5.3969e-09 1.50475e-08 5.7908e-09 -10.2786 0.731801 -0.0259123 -5.39689e-09 1.50475e-08 5.79079e-09 -2.22167 -0.733487 0.20892 -2.03217e-16 0.0 -3.88251e-19 -17.2589 -14.5662 -6.04145 -176.572 71.0178 179.595 -2.44256 14.2676 12.4846 2.03217e-16 0.0 3.88251e-19 130.783 -66.1013 131.579 175.584 64.8456 -172.967 -10.5078 -6.3851 -23.692
76.775 40.0159 87.2076 -186.149 -18.4186 -171.71 -16.8261 37.2478 0.600798 1.23207 -1.76593 -3.66383 -8.51109 19.7697 -15.0507 25.3224 -42.7866 -22.9128 -0.0 0.0 0.0 -0.0 0.0 0.0 3.57855e-13 -1.60199e-14 -6.57086e-13 46.2978 -28.6188 4.22691 -23.106 -50.4701 106.0 -0.0452723 -6.05012 -0.853515 -1.76566e-09 5.48653e-09 2.59983e-09 -3.08464e-09 9.48425e-09 4.49774e-09 -1.76565e-09 5.48653e-09 2.59982e-09 7.73091 5.47488 0.417314 -1.76565e-09 5.48653e-09 2.59982e-09 2.90554 0.965183 0.102902 -1.76565e-09 5.48653e-09 2.59982e-09 10.2786 0.731801 0.0259123 -1.76566e-09 5.48653e-09 2.59982e-09 2.22167 -0.733487 -0.20892 3.57815e-13 -1.59846e-14 -6.57321e-13 0.0772538 53.8968 -31.4934 27.8041 -41.3384 -86.359 0.136968 10.4928 -1.49154 -5.13543e-09 1.3763e-08 5.0234e-09 -8.8314e-09 2.38158e-08 8.72608e-09 -5.13543e-09 1.3763e-08 5.02341e-09 -7.73091 5.47488 -0.417314 -5.13543e-09 1.3763e-08 5.02341e-09 -2.90554 0.965183 -0.102902 -5.13544e-09 1.3763e-08 5.02341e-09 -10.2786 0.731801 -0.0259123 -5.13543e-09 1.3763e-08 5.0234e-09 -2.22167 -0.733487 0.20892 -2.03217e-16 0.0 -3.88251e-19 -17.1827 -14.4299 -5.95769 -176.567 71.0604 179.589 -2.45717 14.3317 12.4975 2.03217e-16 0.0 3.88251e-19 130.619 -66.1076 131.324 175.59 64.7882 -172.967 -10.5324 -6.16798 -23.9186
76.7384 40.0349 87.216 -186.384 -18.3748 -171.68 -16.8513 37.0948 0.800056 1.33286 -2.04315 -3.56125 -8.39744 19.8439 -14.8706 25.2873 -42.348 -22.5448 -0.0 0.0 0.0 -0.0 0.0 0.0 3.32278e-13 -2.79796e-15 -6.22895e-13 45.9325 -28.4467 3.78324 -23.1464 -50.4243 105.882 -0.0450426 -6.03186 -0.850923 -8.53572e-10 6.24427e-09 2.41877e-09 -1.50305e-09 1.07999e-08 4.1869e-09 -8.53568e-10 6.24427e-09 2.41876e-09 7.73091 5.47488 0.417314 -8.53568e-10 6.24427e-09 2.41877e-09 2.90554 0.965183 0.102902 -8.53561e-10 6.24427e-09 2.41877e-09 10.2786 0.731801 0.0259123 -8.53573e-10 6.24427e-09 2.41877e-09 2.22167 -0.733487 -0.20892 3.32228e-13 -2.76831e-15 -6.23115e-13 0.164021 54.4172 -31.7422 27.8114 -41.3066 -86.3009 0.134972 10.4171 -1.48054 -4.29696e-09 1.04738e-08 3.27973e-09 -7.39424e-09 1.81321e-08 5.70435e-09 -4.29696e-09 1.04738e-08 3.27974e-09 -7.73091 5.47488 -0.417314 -4.29696e-09 1.04738e-08 3.27974e-09 -2.90554 0.965183 -0.102902 -4.29696e-09 1.04738e-08 3.27974e-09 -10.2786 0.731801 -0.0259123 -4.29695e-09 1.04738e-08 3.27973e-09 -2.22167 -0.733487 0.20892 -2.03217e-16 0.0 -3.88251e-19 -17.1442 -14.2943 -5.8586 -176.568 71.0558 179.59 -2.47661 14.3722 12.5628 2.03217e-16 0.0 3.88251e-19 130.375 -66.1586 131.021 175.596 64.7445 -172.976 -10.5213 -6.07409 -23.9635
